<svg xmlns="http://www.w3.org/2000/svg" width="124" height="118" viewBox="0 0 124 118">
    <defs>
        <filter id="a" width="119.4%" height="127.3%" x="-9.6%" y="-10.3%" filterUnits="objectBoundingBox">
            <feOffset dy="2" in="SourceAlpha" result="shadowOffsetOuter1"/>
            <feGaussianBlur in="shadowOffsetOuter1" result="shadowBlurOuter1" stdDeviation="2"/>
            <feColorMatrix in="shadowBlurOuter1" result="shadowMatrixOuter1" values="0 0 0 0 0 0 0 0 0 0 0 0 0 0 0 0 0 0 0.26 0"/>
            <feMerge>
                <feMergeNode in="shadowMatrixOuter1"/>
                <feMergeNode in="SourceGraphic"/>
            </feMerge>
        </filter>
        <filter id="b" width="170%" height="170%" x="-35%" y="-25%" filterUnits="objectBoundingBox">
            <feOffset dy="2" in="SourceAlpha" result="shadowOffsetOuter1"/>
            <feGaussianBlur in="shadowOffsetOuter1" result="shadowBlurOuter1" stdDeviation="2"/>
            <feColorMatrix in="shadowBlurOuter1" result="shadowMatrixOuter1" values="0 0 0 0 0 0 0 0 0 0 0 0 0 0 0 0 0 0 0.139068161 0"/>
            <feMerge>
                <feMergeNode in="shadowMatrixOuter1"/>
                <feMergeNode in="SourceGraphic"/>
            </feMerge>
        </filter>
    </defs>
    <g fill="none" fill-rule="evenodd">
        <g>
            <circle cx="59" cy="59" r="59" fill="#B0C9C5" fill-opacity=".128"/>
            <g filter="url(#a)" transform="translate(17.957 32.493)">
                <path fill="#F3B39F" fill-rule="nonzero" d="M69.71 41.792c1.992-.779 7.368-9.35 9.355-10.137 1.046-.418 2.078-.596 2.582.427.435.885-.496 2.831-1.44 4.188-1.477 2.117-5.026 12.221-8.029 13.02-1.715.457-7.225.886-8.981 1.16-2.233.344-2.432.047-4.287 1.41-1.548 1.14-1.745 5.33-1.745 5.33h-9.893s2.514-8.849 5.572-13.985c1.02-1.714 2.5-1.95 6.059-2.61 3.254-.603 6.21-1.696 9.514-1.778 1.188-.035 2.001.513 2.122 1.592.116 1.018-1.237 1.71-2.412 2.275-1.627.784-3.5.796-5.253 1.212m-46.415-1.94c-1.992-.78-7.368-9.35-9.355-10.138-1.046-.418-2.078-.595-2.582.428-.435.885.496 2.83 1.44 4.188 1.477 2.117 5.026 12.221 8.03 13.02 1.714.457 7.224.886 8.98 1.16 2.233.343 2.432.046 4.287 1.41 1.548 1.14 1.745 5.33 1.745 5.33h9.894s-2.515-8.849-5.573-13.985c-1.02-1.714-2.498-1.951-6.058-2.61-3.254-.603-6.21-1.696-9.514-1.778-1.189-.035-2.002.513-2.123 1.592-.115 1.018 1.237 1.71 2.413 2.274 1.627.785 3.5.797 5.253 1.212"/>
                <path stroke="#3D4D4B" stroke-linecap="round" stroke-linejoin="round" stroke-width="2" d="M12.856 39.042c-2.126-.836-7.863-10.047-9.983-10.891-1.117-.45-2.217-.64-2.755.459-.465.951.529 3.042 1.537 4.5 1.576 2.275 5.363 13.132 8.568 13.99 1.83.491 7.71.953 9.583 1.247 2.383.369 2.596.05 4.576 1.515 1.65 1.224 1.86 5.727 1.86 5.727h10.56s-2.684-9.508-5.947-15.027c-1.089-1.842-2.667-2.096-6.466-2.805-3.472-.647-6.625-1.822-10.153-1.91-1.267-.037-2.135.551-2.264 1.71-.123 1.095 1.32 1.838 2.574 2.444 1.736.844 3.735.857 5.606 1.303m49.58-2.262c2.127-.836 7.863-10.047 9.985-10.892 1.117-.45 2.217-.64 2.754.46.465.95-.528 3.041-1.537 4.5-1.575 2.274-5.362 13.131-8.567 13.99-1.83.49-7.71.952-9.583 1.246-2.384.37-2.596.05-4.577 1.515-1.65 1.225-1.86 5.727-1.86 5.727H45.788s2.684-9.508 5.947-15.027c1.088-1.842 2.666-2.096 6.465-2.805 3.473-.647 6.627-1.822 10.153-1.91 1.268-.037 2.135.551 2.265 1.71.123 1.095-1.32 1.838-2.575 2.445-1.736.843-3.735.856-5.607 1.302"/>
                <path fill="#3D4D4B" fill-rule="nonzero" d="M44.104 13.385c-.268 0-.358-.12-.415-.308a5.11 5.11 0 0 0-.324-.743c-.052-.1-.114-.19-.189-.298a1.783 1.783 0 0 1-.097-.14l-.117-.17.207-.01c.127-.008.205-.014.285-.018l1.854-.037a.304.304 0 0 0 .11-.026c.185-.322.372-.661.557-.998l.116-.214h-.058l-4.694.084-3.58.067a.248.248 0 0 0-.118.042 69.41 69.41 0 0 0-.678 1.206h.066c.182.004.363.004.547.004h.517c.456 0 .984.002 1.507.026.651.036 1.217.236 1.674.592.281.23.484.49.624.811l.064.145-.204.024c-.074.004-.13.012-.185.012l-1.319.03c-.793.018-1.589.034-2.378.048-.105 0-.14.02-.187.102-.127.245-.26.481-.396.725l-.165.286a4.37 4.37 0 0 1-.069.134c0 .008-.005.015-.01.024l2.133-.048 2.855-.067h.124l-.005.122a2.461 2.461 0 0 1-.326 1.195c-.455.804-1.207 1.299-2.239 1.463-.474.077-.96.098-1.433.12-.17.004-.345.014-.518.023-.03 0-.06.005-.088.015 0 0-.007.019-.003.065.008.152.013.295.013.448.005.181.008.363.024.549a.64.64 0 0 0 .126.325c.326.419.663.827.994 1.241l.491.602c1.22 1.513 2.437 3.029 3.649 4.548.06.067.108.092.183.092h.025c.399-.023.798-.034 1.193-.045h.773c-1.836-2.259-3.672-4.52-5.525-6.796l-.117-.148.184-.042c.09-.02.142-.032.191-.045.152-.037.293-.067.43-.097.307-.063.624-.128.908-.238 1.613-.617 2.507-1.651 2.74-3.17.039-.24.19-.277.33-.282.218 0 .432-.004.646-.01.202-.002.408-.009.611-.009.075 0 .11-.021.143-.093l.398-.724.245-.443-.209.004a85.55 85.55 0 0 0-1.89.045"/>
                <path stroke="#3D4D4B" stroke-width="2" d="M41.581 0v5.952m-12.66-.694l4.202 4.208m-9.444 8.486l5.938-.001m-.69 12.693l4.196-4.208m8.463 9.465l-.002-5.952m12.66.694l-4.197-4.21m9.44-8.484l-5.936.002m.69-12.695l-4.194 4.21"/>
            </g>
        </g>
        <g filter="url(#b)" transform="translate(100 17)">
            <circle cx="10" cy="10" r="10" fill="#000" fill-opacity=".593"/>
            <text fill="#FFF" font-family="OpenSans, Open Sans" font-size="10" letter-spacing=".938">
                <tspan x="7" y="14">2</tspan>
            </text>
        </g>
    </g>
</svg>
