<svg xmlns="http://www.w3.org/2000/svg" width="124" height="118" viewBox="0 0 124 118">
    <defs>
        <filter id="a" width="120.9%" height="127.3%" x="-10.6%" y="-10.3%" filterUnits="objectBoundingBox">
            <feOffset dy="2" in="SourceAlpha" result="shadowOffsetOuter1"/>
            <feGaussianBlur in="shadowOffsetOuter1" result="shadowBlurOuter1" stdDeviation="2"/>
            <feColorMatrix in="shadowBlurOuter1" result="shadowMatrixOuter1" values="0 0 0 0 0 0 0 0 0 0 0 0 0 0 0 0 0 0 0.257925725 0"/>
            <feMerge>
                <feMergeNode in="shadowMatrixOuter1"/>
                <feMergeNode in="SourceGraphic"/>
            </feMerge>
        </filter>
        <filter id="b" width="170%" height="170%" x="-35%" y="-25%" filterUnits="objectBoundingBox">
            <feOffset dy="2" in="SourceAlpha" result="shadowOffsetOuter1"/>
            <feGaussianBlur in="shadowOffsetOuter1" result="shadowBlurOuter1" stdDeviation="2"/>
            <feColorMatrix in="shadowBlurOuter1" result="shadowMatrixOuter1" values="0 0 0 0 0 0 0 0 0 0 0 0 0 0 0 0 0 0 0.139068161 0"/>
            <feMerge>
                <feMergeNode in="shadowMatrixOuter1"/>
                <feMergeNode in="SourceGraphic"/>
            </feMerge>
        </filter>
    </defs>
    <g fill="none" fill-rule="evenodd">
        <g>
            <circle cx="59" cy="59" r="59" fill="#B0C9C5" fill-opacity=".128"/>
            <g filter="url(#a)" transform="translate(23.087 38.478)">
                <path fill="#3D4D4B" fill-rule="nonzero" d="M17.607 17.431s.963 2.566 2.743 2.907c1.78.34 2.759 0 2.759 0s-.122-1.694-1.813-2.667c-1.693-.972-3.69-.24-3.69-.24"/>
                <path stroke="#3D4D4B" stroke-linecap="round" stroke-linejoin="round" stroke-width="2" d="M17.607 17.431s.963 2.566 2.743 2.907c1.78.34 2.759 0 2.759 0s-.122-1.694-1.813-2.667c-1.693-.972-3.69-.24-3.69-.24z"/>
                <path fill="#C3D9C0" fill-rule="nonzero" d="M2.48 47.347h30.262V2.492H2.481z"/>
                <path stroke="#3D4D4B" stroke-linecap="round" stroke-linejoin="round" stroke-width="2" d="M0 44.855h30.262V0H0z"/>
                <path fill="#D4ECE9" fill-rule="nonzero" d="M24.21 15.228c0 5.046-4.065 9.137-9.08 9.137-5.012 0-9.078-4.09-9.078-9.137 0-5.045 4.066-9.137 9.079-9.137 5.014 0 9.078 4.092 9.078 9.138"/>
                <path stroke="#3D4D4B" stroke-width="2" d="M24.21 15.228c0 5.046-4.065 9.137-9.08 9.137-5.012 0-9.078-4.09-9.078-9.137 0-5.045 4.066-9.137 9.079-9.137 5.014 0 9.078 4.092 9.078 9.138v-.001z"/>
                <path stroke="#3D4D4B" stroke-width="2" d="M8.253 21.043s3.146-2.764 6.925-2.769c3.907-.006 7.38 2.769 7.38 2.769"/>
                <path fill="#FFF" fill-rule="nonzero" d="M19.257 15.505c0 2.14-1.725 3.877-3.851 3.877-2.128 0-3.852-1.736-3.852-3.877a3.876 3.876 0 0 1 1.126-2.739 3.85 3.85 0 0 1 2.726-1.137c2.126 0 3.851 1.734 3.851 3.876"/>
                <path stroke="#3D4D4B" stroke-linecap="round" stroke-linejoin="round" stroke-width="2" d="M19.257 15.505c0 2.14-1.725 3.877-3.851 3.877-2.128 0-3.852-1.736-3.852-3.877a3.876 3.876 0 0 1 1.126-2.739 3.85 3.85 0 0 1 2.726-1.137c2.126 0 3.851 1.734 3.851 3.876z"/>
                <path fill="#3D4D4B" fill-rule="nonzero" d="M11.554 14.398s.595.02 1.691-.741c1.1-.764 1.61-2.028 1.61-2.028s-1.719.53-2.123.942c-.404.41-1.178 1.827-1.178 1.827"/>
                <path stroke="#3D4D4B" stroke-linecap="round" stroke-linejoin="round" stroke-width="2" d="M11.554 14.398s.595.02 1.691-.741c1.1-.764 1.61-2.028 1.61-2.028s-1.719.53-2.123.942c-.404.41-1.178 1.827-1.178 1.827z"/>
                <path fill="#FFF" fill-rule="nonzero" d="M4.402 33.226H26.41v-4.984H4.402z"/>
                <path stroke="#3D4D4B" stroke-linecap="round" stroke-linejoin="round" stroke-width="2" d="M4.402 33.365H26.41v-5.123H4.402v5.123zm0 4.845H26.41 4.402z"/>
                <path fill="#B0C9C5" fill-rule="nonzero" d="M44.847 47.347h30.262V2.492H44.847z"/>
                <path stroke="#3D4D4B" stroke-linecap="round" stroke-linejoin="round" stroke-width="2" d="M42.366 44.855h30.262V0H42.366z"/>
                <path fill="#DFECEC" fill-rule="nonzero" d="M66.576 15.228c0 5.046-4.064 9.137-9.079 9.137-5.013 0-9.078-4.091-9.078-9.137s4.065-9.137 9.078-9.137c5.014 0 9.079 4.091 9.079 9.137"/>
                <path stroke="#3D4D4B" stroke-width="2" d="M66.576 15.228c0 5.046-4.064 9.137-9.079 9.137-5.013 0-9.078-4.091-9.078-9.137s4.065-9.137 9.078-9.137c5.014 0 9.079 4.091 9.079 9.137z"/>
                <path stroke="#3D4D4B" stroke-width="2" d="M50.62 21.043s3.146-2.764 6.926-2.769c3.906-.006 7.379 2.769 7.379 2.769"/>
                <path fill="#FFF" fill-rule="nonzero" d="M61.073 16.06a3.876 3.876 0 0 1-1.125 2.738 3.85 3.85 0 0 1-2.726 1.137c-2.128 0-3.851-1.734-3.851-3.876a3.876 3.876 0 0 1 1.125-2.739 3.85 3.85 0 0 1 2.726-1.137c2.128 0 3.851 1.734 3.851 3.876"/>
                <path stroke="#3D4D4B" stroke-linecap="round" stroke-linejoin="round" stroke-width="2" d="M61.073 16.06a3.876 3.876 0 0 1-1.125 2.738 3.85 3.85 0 0 1-2.726 1.137c-2.128 0-3.851-1.734-3.851-3.876a3.876 3.876 0 0 1 1.125-2.739 3.85 3.85 0 0 1 2.726-1.137c2.128 0 3.851 1.734 3.851 3.876z"/>
                <path fill="#3D4D4B" fill-rule="nonzero" d="M61.073 14.398c-.653-1.351-2.046-2.214-3.576-2.215-1.53.001-2.922.864-3.576 2.215h7.152z"/>
                <path stroke="#3D4D4B" stroke-linecap="round" stroke-linejoin="round" stroke-width="2" d="M61.073 14.398c-.653-1.351-2.046-2.214-3.576-2.215-1.53.001-2.922.864-3.576 2.215h7.152z"/>
                <path fill="#FFF" fill-rule="nonzero" d="M46.768 33.78h22.008v-4.984H46.768z"/>
                <path stroke="#3D4D4B" stroke-linecap="round" stroke-linejoin="round" stroke-width="2" d="M46.768 33.918h22.008v-5.122H46.768v5.122zm0 4.845h22.008-22.008z"/>
                <path fill="#F3B39F" fill-rule="nonzero" d="M22.562 58.145h30.261V13.29H22.562z"/>
                <path stroke="#3D4D4B" stroke-linecap="round" stroke-linejoin="round" stroke-width="2" d="M20.908 56.484H51.17V11.629H20.908z"/>
                <path fill="#E6ECEC" fill-rule="nonzero" d="M45.117 26.857c0 5.046-4.065 9.137-9.078 9.137-5.013 0-9.079-4.09-9.079-9.137 0-5.045 4.066-9.137 9.08-9.137 5.012 0 9.077 4.092 9.077 9.137"/>
                <path stroke="#3D4D4B" stroke-width="2" d="M45.117 26.857c0 5.046-4.065 9.137-9.078 9.137-5.013 0-9.079-4.09-9.079-9.137 0-5.045 4.066-9.137 9.08-9.137 5.012 0 9.077 4.092 9.077 9.137z"/>
                <path stroke="#3D4D4B" stroke-width="2" d="M29.161 32.672s3.145-2.764 6.926-2.769c3.906-.006 7.38 2.768 7.38 2.768"/>
                <path fill="#3D4D4B" fill-rule="nonzero" d="M39.065 23.258c0 .917-1.11 1.661-2.477 1.661-1.367 0-2.475-.744-2.475-1.66 0-.918 1.108-1.662 2.475-1.662 1.368 0 2.477.744 2.477 1.661"/>
                <path stroke="#3D4D4B" stroke-linecap="round" stroke-linejoin="round" stroke-width="2" d="M39.065 23.258c0 .917-1.11 1.661-2.477 1.661-1.367 0-2.475-.744-2.475-1.66 0-.918 1.108-1.662 2.475-1.662 1.368 0 2.477.744 2.477 1.661z"/>
                <path fill="#FFF" fill-rule="nonzero" d="M39.614 27.134a3.879 3.879 0 0 1-1.125 2.739 3.85 3.85 0 0 1-2.726 1.138c-2.125 0-3.85-1.736-3.85-3.877 0-2.14 1.724-3.876 3.85-3.876a3.865 3.865 0 0 1 3.852 3.876"/>
                <path stroke="#3D4D4B" stroke-linecap="round" stroke-linejoin="round" stroke-width="2" d="M39.614 27.134a3.879 3.879 0 0 1-1.125 2.739 3.85 3.85 0 0 1-2.726 1.138c-2.125 0-3.85-1.736-3.85-3.877 0-2.14 1.724-3.876 3.85-3.876a3.865 3.865 0 0 1 3.852 3.876z"/>
                <path fill="#3D4D4B" fill-rule="nonzero" d="M34.113 23.902s2.006 1.612 2.786 2.051c.78.44 2.716.628 2.716.628s-1.382-2.238-1.773-2.469c-.874-.516-3.729-.21-3.729-.21"/>
                <path stroke="#3D4D4B" stroke-linecap="round" stroke-linejoin="round" stroke-width="2" d="M34.113 23.902s2.006 1.612 2.786 2.051c.78.44 2.716.628 2.716.628s-1.382-2.238-1.773-2.469c-.874-.516-3.729-.21-3.729-.21z"/>
                <path fill="#3D4D4B" fill-rule="nonzero" d="M34.663 23.812s-.482 1.314-1.04 1.75c-.559.435-1.71 1.019-1.71 1.019s.38-1.418.94-1.9c.558-.482 1.81-.87 1.81-.87"/>
                <path stroke="#3D4D4B" stroke-linecap="round" stroke-linejoin="round" stroke-width="2" d="M34.663 23.812s-.482 1.314-1.04 1.75c-.559.435-1.71 1.019-1.71 1.019s.38-1.418.94-1.9c.558-.482 1.81-.87 1.81-.87z"/>
                <path fill="#FFF" fill-rule="nonzero" d="M25.31 44.855h22.008V39.87H25.31z"/>
                <path stroke="#3D4D4B" stroke-linecap="round" stroke-linejoin="round" stroke-width="2" d="M25.31 44.993h22.007V39.87H25.31v5.122zm0 4.846h22.008H25.31z"/>
            </g>
        </g>
        <g filter="url(#b)" transform="translate(100 17)">
            <circle cx="10" cy="10" r="10" fill="#000" fill-opacity=".593"/>
            <text fill="#FFF" font-family="OpenSans, Open Sans" font-size="10" letter-spacing=".938">
                <tspan x="7" y="14">1</tspan>
            </text>
        </g>
    </g>
</svg>
